<svg xmlns="http://www.w3.org/2000/svg" width="143.748" height="43.342"><path d="M142.443 37.833c-.109-.3-2.217-6.178-3.542-9.814a10.331 10.331 0 0 0 3.318-6.812 8.615 8.615 0 0 0-1.945-7.042c-2.112-2.392-5.744-3.658-10.51-3.659H113.64l-.644 2.49h-19.6l2.12-2.485H79.047l-3.851 4.329.475-1.839H58.836l-4.347 16.8h-7.447l4.347-16.808h-14l.643-2.483h-3.61c.03-.035.061-.069.09-.1a6.291 6.291 0 0 0 1.412-5.6c-.743-2.872-3.631-4.8-7.186-4.8a10.271 10.271 0 0 0-2.57.332 9.533 9.533 0 0 0-4.954 3.038 7.213 7.213 0 0 0-1.066 1.723 9.8 9.8 0 0 0-4.234-2.263 10.279 10.279 0 0 0-2.57-.331c-3.556 0-6.444 1.929-7.186 4.8a6.292 6.292 0 0 0 1.412 5.6l.014.017H4.708l-.56 2.119s-2.579 9.962-3.7 14.32a10.494 10.494 0 0 0 1.578 9.372c1.63 2.1 4.971 4.614 11.625 4.614 6.247 0 10.893-1.346 14.188-4.111l-.253.985h24.215l-.005.02H68.62l.359-1.385.8 2.63h16.723l-.315-1.25h37.063l.872-3.374 1.872 4.643 17.753-.034z" fill="#fff"/><g transform="translate(2.729 1.564)" fill="#e3051b"><path d="M31.782 11.664h-5.6c-3.733 0-5.764.623-6.569 3.735l-4.194 16.193c-.317 1.237-1.085 1.838-2.892 1.853-1.189.01-2.094-.616-1.772-1.858.483-1.866 2.514-9.666 3.558-13.7.8-3.109-.917-3.735-4.652-3.735H4.056S1.477 24.113.356 28.47c-1.607 6.225 2.4 10.582 10.566 10.582 12.847 0 15.385-6.224 16.514-10.582 1.284-4.977 4.346-16.806 4.346-16.806zM69.07 37.196L66.2 26.608l-2.414 9.342H52.578l5.637-21.789h11.209l-2.411 9.343 10.525-11.833h9.34L76.81 23.496l3.461 13.7zm-17.974-6.234h-10.3l4.347-16.808H33.966l-5.6 21.774h21.445zm81.778-5.59c1.753-.81 3.462-2.451 3.914-6.067.711-5.691-4.158-7.642-9.761-7.641H113.02l-6.279 24.282h11.672l2.415-9.34 4.275 10.606 12.048-.023s-3.257-9.075-4.277-11.817zm-6.7-4.993c-.55 2.257-3.14 3.114-4.54 3.113l1.449-5.6h1.4c1.401-.003 2.075.905 1.691 2.487zm-30.39 7.468h7.435l1.289-4.978h-7.471l.816-3.113h10.261l1.449-5.6H88.126l-5.665 21.791h21.47l1.285-4.982H94.955z"/><ellipse cx="5.602" cy="4.046" rx="5.602" ry="4.046" transform="rotate(-14.53 20.459 -72.145)"/><ellipse cx="5.603" cy="4.047" rx="5.603" ry="4.047" transform="rotate(14.5 -6.291 29.065)"/></g></svg>